<?xml version="1.0" encoding="UTF-8"?>
<svg xmlns="http://www.w3.org/2000/svg" height="20" viewBox="0 0 20 20" width="20">
  <path d="m1.9662404 12.2222222h4.24123583c-.06306697-.7146919-.09636512-1.4584578-.09636512-2.2222222s.03329815-1.50753029.09636512-2.22222222h-4.24123583c-.19525968.70746459-.29957373 1.45266148-.29957373 2.22222222 0 .7695607.10431405 1.5147576.29957373 2.2222222zm.66158915 1.6666667c1.04346895 1.9740144 2.85657275 3.4784087 5.03976643 4.1136379-.54676964-1.0554174-.98184624-2.4727164-1.25146235-4.1136379zm15.40593005-1.6666667c.1952597-.7074646.2995737-1.4526615.2995737-2.2222222 0-.76956074-.104314-1.51475763-.2995737-2.22222222h-4.2412358c.0630669.71469193.0963651 1.45845782.0963651 2.22222222s-.0332982 1.5075303-.0963651 2.2222222zm-.6615891 1.6666667h-3.7883041c-.2696161 1.6409215-.7046927 3.0582205-1.2514624 4.1136379 2.1831937-.6352292 3.9962975-2.1396235 5.0397665-4.1136379zm-9.51615772-1.6666667h4.28797442c.0521567-.6900336.078235-1.4307743.078235-2.2222222 0-.79144791-.0260783-1.53218865-.078235-2.22222222h-4.28797442c-.05215667.69003357-.078235 1.43077431-.078235 2.22222222 0 .7914479.02607833 1.5321886.078235 2.2222222zm.19224808 1.6666667c.33653749 2.0921106.9871172 3.5735921 1.95173914 4.4444444.9646219-.8708523 1.6152016-2.3523338 1.9517391-4.4444444zm-5.42043131-7.77777779h3.78830408c.26961611-1.64092155.70469271-3.05822055 1.25146235-4.11363788-2.18319368.6352292-3.99629748 2.13962348-5.03976643 4.11363788zm14.74434095 0c-1.043469-1.9740144-2.8565728-3.47840868-5.0397665-4.11363788.5467697 1.05541733.9818463 2.47271633 1.2514624 4.11363788zm-9.32390964 0h3.90347824c-.3365375-2.0921106-.9871172-3.57359208-1.9517391-4.44444444-.96462194.87085236-1.61520165 2.35233384-1.95173914 4.44444444zm1.95173914 13.88888889c-5.5228475 0-10-4.4771525-10-10s4.4771525-10 10-10 10 4.4771525 10 10-4.4771525 10-10 10z" fill-rule="evenodd"></path>
</svg>
